<svg xmlns="http://www.w3.org/2000/svg" width="194.3" height="274" viewBox="0 0 194.3 274"><path d="M36.9 5.7c-6 5.7-13.2 16.8-14.4 22.2a8.7 8.7 0 0 1-2.1 4.2C7.8 45.5 9.3 77.2 13.1 96.8c1.8 15.6 16.4 22.2 12.9 27.1-5.1 10.3-17.4-4.6-22.1 10.7C-1.5 145 0 162 12 165.8c16 6.9 26.5-2.7 29.1 6.7 14.9 46.8-3.8 47.1-11.8 86.5-.9 19.2 27.1 16.3 38.6 10.7 3.7-.9 9-9.4 11.7-12s2.5-2.8 18.8-3.3 16.3-.5 16.8 6.7.8 7.5 3.8 10.2 3.4 2.9 13.6 2.5c18.8.8 22.9-12.3 35-21.9 25-27.1 35.4-73.3 21.2-110.4-2.8-8.5-9.5-23.1-13.9-30.2-3.6-4.8.7-9.9 2.3-14.9 11.4-24.1-2.7-59.9-20.4-78.5-5-6.1-13.6-17.8-20.7-17.9-2 0-7.8 4.5-19.6 15.2s-10.7 6.1-28.9 6.6-17.6-.3-19.3-2.7C59.4 9.7 49.6-9.4 36.9 5.7Z" transform="translate(-.9)" style="fill:#42212f"/><path d="M58.7 28.2c1.8 2.5 4.1 4.9 5.1 5.4s11.9.9 24.3 1.2c30.1-.2 20.9 2.4 36-9 3.2-2.9 7.5-6.6 9.5-8.3 3.6-2.9 3.6-2.9 6.6.5 5.4 7.7 19.1 20.1 22 32.2 2.2 8.5 5.9 18.8 6.1 27.3s-8.6 21.2-7.3 29.5 14.4 32.7 17.1 41.5c11.8 35.8 1.4 76-30.3 103.1-11.4 10.4-12.5 10.9-16 7.7-2.9-1.1-.7-16.1-3.7-17.2s-7.8-3.5-15.9-2.7c-15.6 1.5-25 1.8-30.6.7-18.9-4.4-11.1 22.2-32.4 19.9-6.5 0-7.3-.2-6.8-1.8 12.5-40.8 21-35.9 14.3-86.7-1-6-1.9-8.6-3.8-10.6S47 156.5 47 158c-1.5 3.4-31.1-3.1-32.6-6.9-1.4-2-1.4-3-.5-6.2 1.2-9.1 17.4 2.6 23.6-15.6 5-11.6 6.8-16.4-.8-19.3q-4.2 0-8.7-9c-2.3-4.4-3.1-10.5-4.6-32.5-1.2-9.7 1.7-18.6 5.3-25.6 5.2-7.6 6.3-9.6 6.3-11.5s4.9-10.1 9.2-14.3 3-3 7.1 1.7c2.2 2.6 5.6 6.8 7.4 9.4Z" transform="translate(-.9)" style="fill:#fde8d5"/><path d="M68.6 52.1c-9 8.4 8.5 16.6 10.4 4.9-1.1-4.7-5.9-9.6-10.4-4.9ZM111.2 54.3c-7.9 9.1 8.8 15.8 10.8 4.5-.8-4.3-7-9.7-10.8-4.5ZM76.2 70.6c-3.4 2.3-3 7.5 1 11.9 1.4 1.7 2.2 2.6 3.3 3s3 .7 5.9.1c7-1.5 7.1-4 10.1-3.5s4.4 3 8.3 2.6l1.2-.2c.3-.2 3.9-2.2 4.3-6.3a7.4 7.4 0 0 0-2.6-6.7l-1.2-.7a6.3 6.3 0 0 0-3.4-.4c-2.3.3-2.3 1.1-3.7 1s-.7-.5-3.7-1.5a7.9 7.9 0 0 0-3.9-.5h-.1a4.9 4.9 0 0 0-2.6 1.4c-4.8 4.6-6.5-5.5-12.9-.2ZM121 96.9c-6.7 3.6-7.5 5.2-7.8 16.7s-.4 10.4 4.5 15.3c6.5 5.8 11.7 11.8 20.9 11.9 5.2.4 6.9.1 8.4-1.3 4.3-4.7 1.3-10.9-5.7-11.4-4.9-.4-17-6.3-15.1-14.3-.9-12 12.3-.2 18.3-2.2 9.1-1.7-2-11.7-6.7-14.7s-12.2-2.4-16.8 0Z" transform="translate(-.9)" style="fill:#42212f"/></svg>